<mxfile host="app.diagrams.net" modified="2024-06-17T17:57:34.870Z" agent="Mozilla/5.0 (Macintosh; Intel Mac OS X 10_15_7) AppleWebKit/537.36 (KHTML, like Gecko) Chrome/126.0.0.0 Safari/537.36" etag="0QGWFfjlr73n-9PE506N" version="24.5.4" type="github">
  <diagram name="Page-1" id="LA2WkR0tfzE7qU1y7PFE">
    <mxGraphModel dx="1434" dy="761" grid="1" gridSize="10" guides="1" tooltips="1" connect="1" arrows="1" fold="1" page="1" pageScale="1" pageWidth="1100" pageHeight="850" background="#141414" math="0" shadow="0">
      <root>
        <mxCell id="0" />
        <mxCell id="1" parent="0" />
        <mxCell id="IF2rSCCc0a-wimpDH_Pb-1" value="AWS Direct Connect" style="text;align=center;html=1;verticalAlign=middle;whiteSpace=wrap;rounded=0;fontStyle=1;fontColor=#FFFFFF;fontSize=18;" parent="1" vertex="1">
          <mxGeometry x="450" y="20" width="220" height="30" as="geometry" />
        </mxCell>
        <mxCell id="IF2rSCCc0a-wimpDH_Pb-2" value="AWS site to site VPN" style="text;strokeColor=none;align=center;fillColor=none;html=1;verticalAlign=middle;whiteSpace=wrap;rounded=0;fontStyle=1;fontColor=#FFFFFF;" parent="1" vertex="1">
          <mxGeometry x="450" y="880" width="160" height="30" as="geometry" />
        </mxCell>
        <mxCell id="4Yp3aRuwDNmiUD6IqO68-3" value="AWS Cloud" style="sketch=0;outlineConnect=0;fontColor=#232F3E;gradientColor=none;strokeColor=#232F3E;fillColor=#ffffff;dashed=0;verticalLabelPosition=bottom;verticalAlign=top;align=center;html=1;fontSize=12;fontStyle=0;aspect=fixed;shape=mxgraph.aws4.resourceIcon;resIcon=mxgraph.aws4.aws_cloud;" vertex="1" parent="1">
          <mxGeometry x="40" y="80" width="60" height="60" as="geometry" />
        </mxCell>
        <mxCell id="4Yp3aRuwDNmiUD6IqO68-7" value="" style="rounded=0;whiteSpace=wrap;html=1;fillColor=none;strokeColor=#FFFFFF;strokeWidth=2;" vertex="1" parent="1">
          <mxGeometry x="40" y="80" width="400" height="440" as="geometry" />
        </mxCell>
        <mxCell id="4Yp3aRuwDNmiUD6IqO68-9" value="" style="rounded=0;whiteSpace=wrap;html=1;fillColor=none;strokeColor=#FFFFFF;strokeWidth=2;" vertex="1" parent="1">
          <mxGeometry x="800" y="80" width="240" height="440" as="geometry" />
        </mxCell>
        <mxCell id="4Yp3aRuwDNmiUD6IqO68-10" value="" style="image;sketch=0;aspect=fixed;html=1;points=[];align=center;fontSize=12;image=img/lib/mscae/Exchange_On_premises_Access.svg;" vertex="1" parent="1">
          <mxGeometry x="800" y="80" width="28.999999999999996" height="50" as="geometry" />
        </mxCell>
        <mxCell id="4Yp3aRuwDNmiUD6IqO68-11" value="Hospital Server" style="text;strokeColor=none;fillColor=none;html=1;fontSize=16;fontStyle=1;verticalAlign=middle;align=center;fontColor=#FFFFFF;" vertex="1" parent="1">
          <mxGeometry x="880" y="90" width="100" height="40" as="geometry" />
        </mxCell>
      </root>
    </mxGraphModel>
  </diagram>
</mxfile>
